<svg width="24" height="24" viewBox="0 0 24 24" fill="none" xmlns="http://www.w3.org/2000/svg">
<path d="M23.8537 11.755C23.7349 11.5569 21.8091 8.40401 18.3755 6.2988L21.3573 3.31699L20.683 2.6427L17.5149 5.81072C15.941 4.99297 14.0954 4.42624 12 4.42624C4.61579 4.42624 0.3255 11.4561 0.146211 11.755L0 12L0.146211 12.245C0.26501 12.4431 2.19084 15.596 5.6245 17.7012L2.64269 20.683L3.31699 21.3573L6.485 18.1892C8.05894 19.007 9.90452 19.5737 12 19.5737C19.3842 19.5737 23.6744 12.5439 23.8537 12.2449L24 12L23.8537 11.755ZM6.33574 16.99C3.48 15.297 1.65133 12.7876 1.12324 12C1.94472 10.7748 5.90898 5.37998 12 5.37998C13.7893 5.37998 15.3934 5.84733 16.7898 6.53591L15.3189 8.00683C14.4181 7.25679 13.2612 6.80446 12 6.80446C9.13569 6.80446 6.80498 9.13516 6.80498 12C6.80498 13.261 7.25722 14.4178 8.00712 15.3187L6.33574 16.99ZM15.3144 9.35993C15.8933 10.0852 16.2418 11.002 16.2418 12C16.2418 14.3391 14.3391 16.2419 12 16.2419C11.002 16.2419 10.0853 15.8933 9.36002 15.3143L15.3144 9.35993ZM8.68582 14.6398C8.10708 13.9146 7.75862 12.9979 7.75862 12C7.75862 9.66092 9.66135 7.75815 12 7.75815C12.9981 7.75815 13.9148 8.10675 14.6401 8.68558L8.68582 14.6398ZM12 18.62C10.2107 18.62 8.60669 18.1527 7.2102 17.4641L8.68132 15.993C9.58212 16.7431 10.739 17.1956 12 17.1956C14.8648 17.1956 17.1955 14.8648 17.1955 12C17.1955 10.7389 16.7432 9.58198 15.9932 8.68113L17.6643 7.01004C20.52 8.70302 22.3487 11.2124 22.8768 12C22.0553 13.2252 18.091 18.62 12 18.62Z" fill="#607D8B"/>
</svg>
